<mxfile host="hnx">
  <diagram id="a9R" name="In progress">
    <mxGraphModel dx="0" dy="0" background="#FFFACD" grid="0" gridSize="10" guides="1" tooltips="1" connect="1" arrows="1" fold="1" page="1" pageScale="1" pageWidth="1169" pageHeight="827" math="0" shadow="0">
      <root>
        <mxCell id="a9R-A"/>
        <mxCell id="a9R-B" parent="a9R-A"/>
        <mxCell id="a9R-2" value="" style="whiteSpace=wrap;html=1;rounded=1;glass=1;fillColor=#d5e8d4;strokeColor=#82b366;fontColor=#333333" vertex="1" parent="a9R-B">
          <mxGeometry x="10" y="10" width="300" height="60" as="geometry"/>
        </mxCell>
      </root>
    </mxGraphModel>
  </diagram>
  <diagram id="2MU" name="To Do">
    <mxGraphModel dx="0" dy="0" background="#FFFACD" grid="0" gridSize="10" guides="1" tooltips="1" connect="1" arrows="1" fold="1" page="1" pageScale="1" pageWidth="1169" pageHeight="827" math="0" shadow="0">
      <root>
        <mxCell id="2MU-A"/>
        <mxCell id="2MU-B" parent="2MU-A"/>
      </root>
    </mxGraphModel>
  </diagram>
  <diagram id="vKU" name="Done">
    <mxGraphModel dx="0" dy="0" background="#FFFACD" grid="0" gridSize="10" guides="1" tooltips="1" connect="1" arrows="1" fold="1" page="1" pageScale="1" pageWidth="1169" pageHeight="827" math="0" shadow="0">
      <root>
        <mxCell id="vKU-A"/>
        <mxCell id="vKU-B" parent="vKU-A"/>
      </root>
    </mxGraphModel>
  </diagram>
</mxfile>